<svg width="1290" height="2796" viewBox="0 0 1290 2796" fill="none" xmlns="http://www.w3.org/2000/svg">
  <defs>
    <linearGradient id="bg" x1="84" y1="88" x2="1168" y2="2672" gradientUnits="userSpaceOnUse">
      <stop stop-color="#071220"/>
      <stop offset="0.42" stop-color="#0B1F33"/>
      <stop offset="1" stop-color="#0E1830"/>
    </linearGradient>
    <linearGradient id="phone" x1="747" y1="506" x2="1095" y2="2244" gradientUnits="userSpaceOnUse">
      <stop stop-color="#16253D"/>
      <stop offset="1" stop-color="#0B1326"/>
    </linearGradient>
    <linearGradient id="preview" x1="781" y1="708" x2="1068" y2="1518" gradientUnits="userSpaceOnUse">
      <stop stop-color="#1C3656"/>
      <stop offset="0.58" stop-color="#0B1525"/>
      <stop offset="1" stop-color="#13263D"/>
    </linearGradient>
    <filter id="blur-a" x="58" y="315" width="477" height="477" filterUnits="userSpaceOnUse" color-interpolation-filters="sRGB">
      <feGaussianBlur stdDeviation="80"/>
    </filter>
    <filter id="blur-b" x="851" y="1990" width="360" height="360" filterUnits="userSpaceOnUse" color-interpolation-filters="sRGB">
      <feGaussianBlur stdDeviation="70"/>
    </filter>
  </defs>
  <rect width="1290" height="2796" rx="64" fill="url(#bg)"/>
  <g filter="url(#blur-a)">
    <circle cx="296" cy="553" r="158" fill="#3ED0FF" fill-opacity="0.34"/>
  </g>
  <g filter="url(#blur-b)">
    <circle cx="1031" cy="2170" r="110" fill="#FF7F8F" fill-opacity="0.28"/>
  </g>
  <rect x="82" y="86" width="1126" height="2624" rx="54" stroke="white" stroke-opacity="0.08" stroke-width="2"/>
  <rect x="112" y="118" width="226" height="62" rx="31" fill="#0F2742" stroke="#5CE0FF" stroke-opacity="0.32"/>
  <text x="159" y="159" fill="#8CEBFF" font-size="30" font-family="Avenir Next, Trebuchet MS, sans-serif" font-weight="700" letter-spacing="5">BLURIO</text>
  <text x="112" y="372" fill="#F5FBFF" font-size="146" font-family="Avenir Next Condensed, Avenir Next, sans-serif" font-weight="800">BLUR</text>
  <text x="112" y="516" fill="#F5FBFF" font-size="146" font-family="Avenir Next Condensed, Avenir Next, sans-serif" font-weight="800">FACES</text>
  <text x="112" y="660" fill="#7EE6FF" font-size="146" font-family="Avenir Next Condensed, Avenir Next, sans-serif" font-weight="800">FAST</text>
  <text x="116" y="784" fill="#BFD7EA" font-size="44" font-family="Avenir Next, Trebuchet MS, sans-serif" font-weight="500">Hide strangers, kids, and passersby before a clip ever leaves your phone.</text>
  <g>
    <rect x="715" y="470" width="396" height="1770" rx="58" fill="#050A15"/>
    <rect x="731" y="488" width="364" height="1734" rx="44" fill="url(#phone)"/>
    <rect x="832" y="522" width="161" height="31" rx="15.5" fill="#03060C"/>
    <rect x="769" y="610" width="288" height="950" rx="36" fill="url(#preview)"/>
    <rect x="808" y="741" width="178" height="286" rx="88" fill="#7C5D44" fill-opacity="0.45"/>
    <circle cx="897" cy="925" r="96" fill="#8F6E53" fill-opacity="0.9"/>
    <rect x="824" y="840" width="150" height="185" rx="74" fill="#192736"/>
    <ellipse cx="902" cy="915" rx="118" ry="138" fill="#5DE1FF" fill-opacity="0.16"/>
    <ellipse cx="902" cy="915" rx="134" ry="154" stroke="#8CEBFF" stroke-width="10" stroke-dasharray="24 18"/>
    <rect x="802" y="1510" width="200" height="54" rx="27" fill="#0A1A2E" stroke="#61DFFF" stroke-opacity="0.5"/>
    <text x="846" y="1546" fill="#DFFAFF" font-size="28" font-family="Avenir Next, Trebuchet MS, sans-serif" font-weight="700">Face Blur</text>
    <rect x="769" y="1640" width="288" height="458" rx="30" fill="#0B1322" stroke="white" stroke-opacity="0.08"/>
    <rect x="805" y="1690" width="216" height="18" rx="9" fill="#163456"/>
    <rect x="805" y="1730" width="173" height="18" rx="9" fill="#163456"/>
    <rect x="805" y="1820" width="216" height="14" rx="7" fill="#1E354D"/>
    <rect x="805" y="1854" width="216" height="14" rx="7" fill="#1E354D"/>
    <rect x="805" y="1888" width="216" height="14" rx="7" fill="#1E354D"/>
    <rect x="805" y="1985" width="216" height="10" rx="5" fill="#1B2739"/>
    <rect x="805" y="2012" width="216" height="10" rx="5" fill="#1B2739"/>
    <rect x="805" y="2050" width="216" height="10" rx="5" fill="#1B2739"/>
  </g>
  <rect x="112" y="2096" width="490" height="198" rx="38" fill="#0E1D31" stroke="white" stroke-opacity="0.08"/>
  <text x="154" y="2176" fill="#EAF6FF" font-size="36" font-family="Avenir Next, Trebuchet MS, sans-serif" font-weight="700">Tap once. Check live. Export clean.</text>
  <text x="154" y="2244" fill="#9EB9CD" font-size="28" font-family="Avenir Next, Trebuchet MS, sans-serif" font-weight="500">A privacy-first mobile editor made for quick fixes, not full post-production.</text>
  <rect x="112" y="2392" width="218" height="78" rx="39" fill="#61DFFF"/>
  <text x="169" y="2443" fill="#062139" font-size="34" font-family="Avenir Next, Trebuchet MS, sans-serif" font-weight="800">ON DEVICE</text>
</svg>
