<svg width="1290" height="2796" viewBox="0 0 1290 2796" fill="none" xmlns="http://www.w3.org/2000/svg">
  <defs>
    <linearGradient id="bg" x1="120" y1="96" x2="1194" y2="2684" gradientUnits="userSpaceOnUse">
      <stop stop-color="#09101E"/>
      <stop offset="0.48" stop-color="#14132E"/>
      <stop offset="1" stop-color="#130E25"/>
    </linearGradient>
    <linearGradient id="panel" x1="715" y1="500" x2="1091" y2="2250" gradientUnits="userSpaceOnUse">
      <stop stop-color="#1A1B3A"/>
      <stop offset="1" stop-color="#0E1024"/>
    </linearGradient>
    <filter id="glow" x="32" y="258" width="524" height="524" filterUnits="userSpaceOnUse" color-interpolation-filters="sRGB">
      <feGaussianBlur stdDeviation="82"/>
    </filter>
  </defs>
  <rect width="1290" height="2796" rx="64" fill="url(#bg)"/>
  <g filter="url(#glow)">
    <circle cx="294" cy="520" r="180" fill="#9A71FF" fill-opacity="0.34"/>
  </g>
  <rect x="82" y="86" width="1126" height="2624" rx="54" stroke="white" stroke-opacity="0.08" stroke-width="2"/>
  <rect x="112" y="118" width="248" height="62" rx="31" fill="#1B1634" stroke="#B18EFF" stroke-opacity="0.36"/>
  <text x="156" y="159" fill="#D3C1FF" font-size="30" font-family="Avenir Next, Trebuchet MS, sans-serif" font-weight="700" letter-spacing="5">PRIVATE FLOW</text>
  <text x="112" y="372" fill="#F7F4FF" font-size="132" font-family="Avenir Next Condensed, Avenir Next, sans-serif" font-weight="800">KEEP RAW</text>
  <text x="112" y="504" fill="#F7F4FF" font-size="132" font-family="Avenir Next Condensed, Avenir Next, sans-serif" font-weight="800">VIDEO</text>
  <text x="112" y="636" fill="#B58EFF" font-size="132" font-family="Avenir Next Condensed, Avenir Next, sans-serif" font-weight="800">OFFLINE</text>
  <text x="116" y="764" fill="#C9BFDF" font-size="44" font-family="Avenir Next, Trebuchet MS, sans-serif" font-weight="500">Import, blur, and save without handing your source footage to a cloud workflow.</text>
  <g>
    <rect x="715" y="470" width="396" height="1770" rx="58" fill="#050511"/>
    <rect x="731" y="488" width="364" height="1734" rx="44" fill="url(#panel)"/>
    <rect x="832" y="522" width="161" height="31" rx="15.5" fill="#03030A"/>
    <rect x="765" y="622" width="296" height="348" rx="34" fill="#241F44"/>
    <rect x="792" y="663" width="242" height="24" rx="12" fill="#372A61"/>
    <rect x="792" y="708" width="164" height="18" rx="9" fill="#372A61"/>
    <rect x="792" y="784" width="242" height="112" rx="26" fill="#120F24" stroke="#A37FFF" stroke-opacity="0.45"/>
    <text x="837" y="853" fill="#E9DEFF" font-size="44" font-family="Avenir Next, Trebuchet MS, sans-serif" font-weight="800">No Upload</text>
    <rect x="765" y="1002" width="296" height="566" rx="34" fill="#111626" stroke="white" stroke-opacity="0.08"/>
    <rect x="799" y="1060" width="228" height="18" rx="9" fill="#2B3855"/>
    <rect x="799" y="1100" width="178" height="18" rx="9" fill="#2B3855"/>
    <rect x="799" y="1178" width="228" height="120" rx="24" fill="#182138"/>
    <rect x="825" y="1208" width="176" height="60" rx="18" fill="#20304F"/>
    <path d="M765 1648H1061" stroke="white" stroke-opacity="0.08"/>
    <rect x="799" y="1700" width="228" height="20" rx="10" fill="#2B3855"/>
    <rect x="799" y="1742" width="228" height="20" rx="10" fill="#2B3855"/>
    <rect x="799" y="1784" width="228" height="20" rx="10" fill="#2B3855"/>
  </g>
  <rect x="112" y="2086" width="508" height="214" rx="38" fill="#14152B" stroke="white" stroke-opacity="0.08"/>
  <text x="152" y="2168" fill="#F7F4FF" font-size="36" font-family="Avenir Next, Trebuchet MS, sans-serif" font-weight="700">Built for local edits from start to finish.</text>
  <text x="152" y="2238" fill="#B8AFCF" font-size="28" font-family="Avenir Next, Trebuchet MS, sans-serif" font-weight="500">When privacy is the job, sending original clips away is the wrong first step.</text>
  <rect x="112" y="2390" width="252" height="78" rx="39" fill="#B58EFF"/>
  <text x="182" y="2441" fill="#1A1430" font-size="34" font-family="Avenir Next, Trebuchet MS, sans-serif" font-weight="800">NO CLOUD FIRST</text>
</svg>
