<svg width="1290" height="2796" viewBox="0 0 1290 2796" fill="none" xmlns="http://www.w3.org/2000/svg">
  <defs>
    <linearGradient id="bg" x1="94" y1="82" x2="1187" y2="2680" gradientUnits="userSpaceOnUse">
      <stop stop-color="#0C161D"/>
      <stop offset="0.52" stop-color="#10242C"/>
      <stop offset="1" stop-color="#0B1825"/>
    </linearGradient>
    <linearGradient id="phone" x1="730" y1="498" x2="1085" y2="2240" gradientUnits="userSpaceOnUse">
      <stop stop-color="#1A303B"/>
      <stop offset="1" stop-color="#0E1920"/>
    </linearGradient>
  </defs>
  <rect width="1290" height="2796" rx="64" fill="url(#bg)"/>
  <rect x="82" y="86" width="1126" height="2624" rx="54" stroke="white" stroke-opacity="0.08" stroke-width="2"/>
  <rect x="112" y="118" width="256" height="62" rx="31" fill="#142B35" stroke="#8CF0A4" stroke-opacity="0.35"/>
  <text x="160" y="159" fill="#A9F4BA" font-size="30" font-family="Avenir Next, Trebuchet MS, sans-serif" font-weight="700" letter-spacing="5">FAST FIXES</text>
  <text x="112" y="358" fill="#F4FFF7" font-size="124" font-family="Avenir Next Condensed, Avenir Next, sans-serif" font-weight="800">COVER</text>
  <text x="112" y="482" fill="#F4FFF7" font-size="124" font-family="Avenir Next Condensed, Avenir Next, sans-serif" font-weight="800">PLATES</text>
  <text x="112" y="606" fill="#8CF0A4" font-size="124" font-family="Avenir Next Condensed, Avenir Next, sans-serif" font-weight="800">&amp; ADDRESSES</text>
  <text x="116" y="724" fill="#C8E0D1" font-size="42" font-family="Avenir Next, Trebuchet MS, sans-serif" font-weight="500">Blur the details that identify a car, a building, or a doorstep in one clean mobile pass.</text>
  <g>
    <rect x="715" y="470" width="396" height="1770" rx="58" fill="#061015"/>
    <rect x="731" y="488" width="364" height="1734" rx="44" fill="url(#phone)"/>
    <rect x="832" y="522" width="161" height="31" rx="15.5" fill="#03080B"/>
    <rect x="769" y="620" width="288" height="1030" rx="34" fill="#1A343E"/>
    <rect x="804" y="690" width="218" height="138" rx="22" fill="#263E4B"/>
    <rect x="820" y="726" width="186" height="66" rx="16" fill="#9CF4B4"/>
    <text x="861" y="770" fill="#0B2221" font-size="32" font-family="Avenir Next, Trebuchet MS, sans-serif" font-weight="800">5FJ-421</text>
    <rect x="868" y="972" width="124" height="142" rx="24" fill="#2F4850"/>
    <rect x="846" y="936" width="168" height="212" rx="30" stroke="#B5FFC2" stroke-width="10" stroke-dasharray="22 16"/>
    <rect x="793" y="1534" width="240" height="54" rx="27" fill="#102229" stroke="#8CF0A4" stroke-opacity="0.5"/>
    <text x="830" y="1570" fill="#E9FFF0" font-size="28" font-family="Avenir Next, Trebuchet MS, sans-serif" font-weight="700">Plate-Safe Region</text>
    <rect x="769" y="1690" width="288" height="392" rx="30" fill="#0D171C" stroke="white" stroke-opacity="0.08"/>
    <rect x="801" y="1750" width="224" height="18" rx="9" fill="#31484F"/>
    <rect x="801" y="1790" width="164" height="18" rx="9" fill="#31484F"/>
    <rect x="801" y="1880" width="224" height="16" rx="8" fill="#203237"/>
    <rect x="801" y="1916" width="224" height="16" rx="8" fill="#203237"/>
  </g>
  <rect x="112" y="2066" width="516" height="234" rx="40" fill="#102026" stroke="white" stroke-opacity="0.08"/>
  <text x="154" y="2146" fill="#F4FFF7" font-size="36" font-family="Avenir Next, Trebuchet MS, sans-serif" font-weight="700">Great for street reels, drive-bys, and delivery clips.</text>
  <text x="154" y="2218" fill="#B6CFBD" font-size="28" font-family="Avenir Next, Trebuchet MS, sans-serif" font-weight="500">Drop a blur where it matters, keep the scene readable, and move on fast.</text>
  <rect x="112" y="2390" width="250" height="78" rx="39" fill="#8CF0A4"/>
  <text x="184" y="2441" fill="#0A2312" font-size="34" font-family="Avenir Next, Trebuchet MS, sans-serif" font-weight="800">ONE CLEAN PASS</text>
</svg>
