<svg width="1290" height="2796" viewBox="0 0 1290 2796" fill="none" xmlns="http://www.w3.org/2000/svg">
  <defs>
    <linearGradient id="bg" x1="96" y1="92" x2="1190" y2="2688" gradientUnits="userSpaceOnUse">
      <stop stop-color="#10111A"/>
      <stop offset="0.5" stop-color="#231326"/>
      <stop offset="1" stop-color="#130E1D"/>
    </linearGradient>
    <linearGradient id="phone" x1="726" y1="496" x2="1086" y2="2240" gradientUnits="userSpaceOnUse">
      <stop stop-color="#2B1730"/>
      <stop offset="1" stop-color="#140E1C"/>
    </linearGradient>
  </defs>
  <rect width="1290" height="2796" rx="64" fill="url(#bg)"/>
  <rect x="82" y="86" width="1126" height="2624" rx="54" stroke="white" stroke-opacity="0.08" stroke-width="2"/>
  <rect x="112" y="118" width="248" height="62" rx="31" fill="#23142B" stroke="#FF9AC9" stroke-opacity="0.35"/>
  <text x="154" y="159" fill="#FFC0DF" font-size="30" font-family="Avenir Next, Trebuchet MS, sans-serif" font-weight="700" letter-spacing="5">SEE IT LIVE</text>
  <text x="112" y="372" fill="#FFF6FB" font-size="132" font-family="Avenir Next Condensed, Avenir Next, sans-serif" font-weight="800">PREVIEW</text>
  <text x="112" y="504" fill="#FFF6FB" font-size="132" font-family="Avenir Next Condensed, Avenir Next, sans-serif" font-weight="800">BEFORE</text>
  <text x="112" y="636" fill="#FF9AC9" font-size="132" font-family="Avenir Next Condensed, Avenir Next, sans-serif" font-weight="800">EXPORT</text>
  <text x="116" y="760" fill="#D9C5D5" font-size="42" font-family="Avenir Next, Trebuchet MS, sans-serif" font-weight="500">Place the blur, scrub the timeline, and trust what you are about to save.</text>
  <g>
    <rect x="715" y="470" width="396" height="1770" rx="58" fill="#05050A"/>
    <rect x="731" y="488" width="364" height="1734" rx="44" fill="url(#phone)"/>
    <rect x="832" y="522" width="161" height="31" rx="15.5" fill="#020206"/>
    <rect x="769" y="622" width="288" height="936" rx="34" fill="#2B2037"/>
    <circle cx="872" cy="966" r="112" fill="#5E4B54"/>
    <rect x="824" y="916" width="150" height="144" rx="48" fill="#362638" stroke="#FFB2D7" stroke-width="10" stroke-dasharray="22 16"/>
    <rect x="785" y="1460" width="256" height="54" rx="27" fill="#1E1223" stroke="#FF9AC9" stroke-opacity="0.5"/>
    <text x="847" y="1496" fill="#FFF1F8" font-size="28" font-family="Avenir Next, Trebuchet MS, sans-serif" font-weight="700">Live Preview</text>
    <rect x="769" y="1616" width="288" height="462" rx="30" fill="#120E18" stroke="white" stroke-opacity="0.08"/>
    <rect x="801" y="1682" width="224" height="14" rx="7" fill="#31253C"/>
    <rect x="801" y="1714" width="224" height="14" rx="7" fill="#31253C"/>
    <rect x="801" y="1758" width="224" height="12" rx="6" fill="#231A2E"/>
    <rect x="801" y="1784" width="224" height="12" rx="6" fill="#231A2E"/>
    <rect x="801" y="1864" width="224" height="20" rx="10" fill="#33213C"/>
    <circle cx="848" cy="1948" r="16" fill="#FF9AC9"/>
    <rect x="882" y="1937" width="143" height="22" rx="11" fill="#33213C"/>
  </g>
  <rect x="112" y="2066" width="506" height="232" rx="40" fill="#18121D" stroke="white" stroke-opacity="0.08"/>
  <text x="154" y="2148" fill="#FFF6FB" font-size="36" font-family="Avenir Next, Trebuchet MS, sans-serif" font-weight="700">More confidence, less re-exporting.</text>
  <text x="154" y="2220" fill="#C8B7C7" font-size="28" font-family="Avenir Next, Trebuchet MS, sans-serif" font-weight="500">Check the exact frame where a face, badge, or number appears before the final save.</text>
  <rect x="112" y="2390" width="232" height="78" rx="39" fill="#FF9AC9"/>
  <text x="182" y="2441" fill="#301226" font-size="34" font-family="Avenir Next, Trebuchet MS, sans-serif" font-weight="800">SCRUB &amp; CHECK</text>
</svg>
