<svg width="1290" height="2796" viewBox="0 0 1290 2796" fill="none" xmlns="http://www.w3.org/2000/svg">
  <defs>
    <linearGradient id="bg" x1="88" y1="92" x2="1186" y2="2680" gradientUnits="userSpaceOnUse">
      <stop stop-color="#0E1413"/>
      <stop offset="0.48" stop-color="#102A25"/>
      <stop offset="1" stop-color="#0A1C1C"/>
    </linearGradient>
    <linearGradient id="phone" x1="732" y1="494" x2="1090" y2="2240" gradientUnits="userSpaceOnUse">
      <stop stop-color="#17362C"/>
      <stop offset="1" stop-color="#0D1E1C"/>
    </linearGradient>
  </defs>
  <rect width="1290" height="2796" rx="64" fill="url(#bg)"/>
  <rect x="82" y="86" width="1126" height="2624" rx="54" stroke="white" stroke-opacity="0.08" stroke-width="2"/>
  <rect x="112" y="118" width="286" height="62" rx="31" fill="#15352E" stroke="#7EF2D0" stroke-opacity="0.36"/>
  <text x="154" y="159" fill="#A6FFDF" font-size="30" font-family="Avenir Next, Trebuchet MS, sans-serif" font-weight="700" letter-spacing="5">MORE CONTROL</text>
  <text x="112" y="366" fill="#F4FFFC" font-size="120" font-family="Avenir Next Condensed, Avenir Next, sans-serif" font-weight="800">STACK</text>
  <text x="112" y="486" fill="#F4FFFC" font-size="120" font-family="Avenir Next Condensed, Avenir Next, sans-serif" font-weight="800">MULTIPLE</text>
  <text x="112" y="606" fill="#7EF2D0" font-size="120" font-family="Avenir Next Condensed, Avenir Next, sans-serif" font-weight="800">BLUR REGIONS</text>
  <text x="116" y="724" fill="#C5DED7" font-size="42" font-family="Avenir Next, Trebuchet MS, sans-serif" font-weight="500">Catch every face, badge, number plate, or document detail in the same pass.</text>
  <g>
    <rect x="715" y="470" width="396" height="1770" rx="58" fill="#040A0A"/>
    <rect x="731" y="488" width="364" height="1734" rx="44" fill="url(#phone)"/>
    <rect x="832" y="522" width="161" height="31" rx="15.5" fill="#020505"/>
    <rect x="769" y="616" width="288" height="980" rx="34" fill="#1B3A32"/>
    <ellipse cx="866" cy="916" rx="102" ry="124" fill="#6B5B48"/>
    <rect x="808" y="842" width="166" height="176" rx="82" fill="#1E2F29" stroke="#89F8D7" stroke-width="10" stroke-dasharray="22 16"/>
    <rect x="848" y="1150" width="146" height="88" rx="20" fill="#192C29" stroke="#FFD990" stroke-width="10" stroke-dasharray="22 16"/>
    <rect x="804" y="1338" width="196" height="104" rx="22" fill="#112420" stroke="#B6FFC0" stroke-width="10" stroke-dasharray="22 16"/>
    <rect x="781" y="1514" width="264" height="54" rx="27" fill="#0E2421" stroke="#7EF2D0" stroke-opacity="0.5"/>
    <text x="838" y="1550" fill="#E8FFF7" font-size="28" font-family="Avenir Next, Trebuchet MS, sans-serif" font-weight="700">3 regions active</text>
    <rect x="769" y="1658" width="288" height="424" rx="30" fill="#0D1717" stroke="white" stroke-opacity="0.08"/>
    <rect x="803" y="1722" width="224" height="20" rx="10" fill="#29433D"/>
    <rect x="803" y="1762" width="224" height="20" rx="10" fill="#29433D"/>
    <rect x="803" y="1802" width="224" height="20" rx="10" fill="#29433D"/>
    <rect x="803" y="1882" width="224" height="14" rx="7" fill="#1D2F2D"/>
    <rect x="803" y="1914" width="224" height="14" rx="7" fill="#1D2F2D"/>
  </g>
  <rect x="112" y="2072" width="506" height="226" rx="40" fill="#10211D" stroke="white" stroke-opacity="0.08"/>
  <text x="154" y="2148" fill="#F4FFFC" font-size="36" font-family="Avenir Next, Trebuchet MS, sans-serif" font-weight="700">One clip, multiple private details, zero panic.</text>
  <text x="154" y="2218" fill="#B8D1CA" font-size="28" font-family="Avenir Next, Trebuchet MS, sans-serif" font-weight="500">Layer regions, keep moving, and make sure the frame is actually ready to publish.</text>
  <rect x="112" y="2390" width="258" height="78" rx="39" fill="#7EF2D0"/>
  <text x="180" y="2441" fill="#06261D" font-size="34" font-family="Avenir Next, Trebuchet MS, sans-serif" font-weight="800">CHECK EVERYTHING</text>
</svg>
