<svg width="1290" height="2796" viewBox="0 0 1290 2796" fill="none" xmlns="http://www.w3.org/2000/svg">
  <defs>
    <linearGradient id="bg" x1="92" y1="96" x2="1184" y2="2680" gradientUnits="userSpaceOnUse">
      <stop stop-color="#101820"/>
      <stop offset="0.48" stop-color="#153043"/>
      <stop offset="1" stop-color="#0D182D"/>
    </linearGradient>
    <linearGradient id="phone" x1="732" y1="494" x2="1090" y2="2240" gradientUnits="userSpaceOnUse">
      <stop stop-color="#153758"/>
      <stop offset="1" stop-color="#0C1C31"/>
    </linearGradient>
  </defs>
  <rect width="1290" height="2796" rx="64" fill="url(#bg)"/>
  <rect x="82" y="86" width="1126" height="2624" rx="54" stroke="white" stroke-opacity="0.08" stroke-width="2"/>
  <rect x="112" y="118" width="252" height="62" rx="31" fill="#11304A" stroke="#87BFFF" stroke-opacity="0.36"/>
  <text x="162" y="159" fill="#B8D7FF" font-size="30" font-family="Avenir Next, Trebuchet MS, sans-serif" font-weight="700" letter-spacing="5">CLEAN EXPORTS</text>
  <text x="112" y="366" fill="#F5FAFF" font-size="122" font-family="Avenir Next Condensed, Avenir Next, sans-serif" font-weight="800">TUNE</text>
  <text x="112" y="488" fill="#F5FAFF" font-size="122" font-family="Avenir Next Condensed, Avenir Next, sans-serif" font-weight="800">EXPORT</text>
  <text x="112" y="610" fill="#87BFFF" font-size="122" font-family="Avenir Next Condensed, Avenir Next, sans-serif" font-weight="800">QUALITY</text>
  <text x="116" y="728" fill="#C4D1E2" font-size="42" font-family="Avenir Next, Trebuchet MS, sans-serif" font-weight="500">Keep control of resolution, frame rate, codec, and audio instead of accepting a bad default.</text>
  <g>
    <rect x="715" y="470" width="396" height="1770" rx="58" fill="#050915"/>
    <rect x="731" y="488" width="364" height="1734" rx="44" fill="url(#phone)"/>
    <rect x="832" y="522" width="161" height="31" rx="15.5" fill="#04070C"/>
    <rect x="769" y="620" width="288" height="1440" rx="34" fill="#132743" stroke="white" stroke-opacity="0.08"/>
    <rect x="803" y="698" width="220" height="22" rx="11" fill="#234670"/>
    <rect x="803" y="742" width="172" height="18" rx="9" fill="#234670"/>
    <rect x="803" y="836" width="220" height="132" rx="26" fill="#0E1C31" stroke="#87BFFF" stroke-opacity="0.4"/>
    <text x="837" y="916" fill="#F1F7FF" font-size="48" font-family="Avenir Next, Trebuchet MS, sans-serif" font-weight="800">4K / 60</text>
    <rect x="803" y="1038" width="220" height="20" rx="10" fill="#234670"/>
    <rect x="803" y="1078" width="220" height="20" rx="10" fill="#234670"/>
    <rect x="803" y="1118" width="220" height="20" rx="10" fill="#234670"/>
    <rect x="803" y="1158" width="220" height="20" rx="10" fill="#234670"/>
    <rect x="803" y="1262" width="220" height="106" rx="24" fill="#0F1D33"/>
    <circle cx="855" cy="1315" r="18" fill="#87BFFF"/>
    <rect x="889" y="1305" width="124" height="20" rx="10" fill="#2A4C75"/>
    <rect x="803" y="1452" width="220" height="106" rx="24" fill="#0F1D33"/>
    <circle cx="855" cy="1505" r="18" fill="#87BFFF"/>
    <rect x="889" y="1495" width="124" height="20" rx="10" fill="#2A4C75"/>
    <rect x="803" y="1642" width="220" height="106" rx="24" fill="#0F1D33"/>
    <circle cx="855" cy="1695" r="18" fill="#87BFFF"/>
    <rect x="889" y="1685" width="124" height="20" rx="10" fill="#2A4C75"/>
    <rect x="803" y="1832" width="220" height="106" rx="24" fill="#0F1D33"/>
    <circle cx="855" cy="1885" r="18" fill="#87BFFF"/>
    <rect x="889" y="1875" width="124" height="20" rx="10" fill="#2A4C75"/>
  </g>
  <rect x="112" y="2066" width="518" height="232" rx="40" fill="#122438" stroke="white" stroke-opacity="0.08"/>
  <text x="154" y="2146" fill="#F5FAFF" font-size="36" font-family="Avenir Next, Trebuchet MS, sans-serif" font-weight="700">Privacy edits should not cost you the final render.</text>
  <text x="154" y="2218" fill="#B5C3D8" font-size="28" font-family="Avenir Next, Trebuchet MS, sans-serif" font-weight="500">Dial in the output before you save, whether the clip needs speed, detail, or both.</text>
  <rect x="112" y="2390" width="246" height="78" rx="39" fill="#87BFFF"/>
  <text x="186" y="2441" fill="#0B2343" font-size="34" font-family="Avenir Next, Trebuchet MS, sans-serif" font-weight="800">YOU DECIDE</text>
</svg>
