<svg width="1290" height="2796" viewBox="0 0 1290 2796" fill="none" xmlns="http://www.w3.org/2000/svg">
  <defs>
    <linearGradient id="bg" x1="88" y1="92" x2="1188" y2="2688" gradientUnits="userSpaceOnUse">
      <stop stop-color="#1A120C"/>
      <stop offset="0.46" stop-color="#322014"/>
      <stop offset="1" stop-color="#21140E"/>
    </linearGradient>
    <linearGradient id="phone" x1="732" y1="492" x2="1092" y2="2240" gradientUnits="userSpaceOnUse">
      <stop stop-color="#402718"/>
      <stop offset="1" stop-color="#1D130F"/>
    </linearGradient>
  </defs>
  <rect width="1290" height="2796" rx="64" fill="url(#bg)"/>
  <rect x="82" y="86" width="1126" height="2624" rx="54" stroke="white" stroke-opacity="0.08" stroke-width="2"/>
  <rect x="112" y="118" width="268" height="62" rx="31" fill="#3A2417" stroke="#FFB17A" stroke-opacity="0.36"/>
  <text x="156" y="159" fill="#FFC7A2" font-size="30" font-family="Avenir Next, Trebuchet MS, sans-serif" font-weight="700" letter-spacing="5">MOBILE FIRST</text>
  <text x="112" y="362" fill="#FFF7F1" font-size="118" font-family="Avenir Next Condensed, Avenir Next, sans-serif" font-weight="800">FIX CLIENT</text>
  <text x="112" y="480" fill="#FFF7F1" font-size="118" font-family="Avenir Next Condensed, Avenir Next, sans-serif" font-weight="800">CLIPS</text>
  <text x="112" y="598" fill="#FFB17A" font-size="118" font-family="Avenir Next Condensed, Avenir Next, sans-serif" font-weight="800">ON THE GO</text>
  <text x="116" y="714" fill="#D8C7BE" font-size="42" font-family="Avenir Next, Trebuchet MS, sans-serif" font-weight="500">Handle fast privacy edits from the same phone you already use to shoot and send.</text>
  <g>
    <rect x="715" y="470" width="396" height="1770" rx="58" fill="#090603"/>
    <rect x="731" y="488" width="364" height="1734" rx="44" fill="url(#phone)"/>
    <rect x="832" y="522" width="161" height="31" rx="15.5" fill="#050302"/>
    <rect x="769" y="620" width="288" height="986" rx="34" fill="#4A2F1B"/>
    <rect x="803" y="678" width="220" height="204" rx="28" fill="#241710"/>
    <rect x="843" y="724" width="140" height="112" rx="22" fill="#5B3A24"/>
    <rect x="835" y="714" width="156" height="128" rx="26" stroke="#FFB17A" stroke-width="10" stroke-dasharray="22 16"/>
    <rect x="803" y="944" width="220" height="164" rx="28" fill="#241710"/>
    <rect x="803" y="1168" width="220" height="164" rx="28" fill="#241710"/>
    <rect x="803" y="1392" width="220" height="164" rx="28" fill="#241710"/>
    <rect x="790" y="1520" width="246" height="54" rx="27" fill="#2D1A12" stroke="#FFB17A" stroke-opacity="0.52"/>
    <text x="834" y="1556" fill="#FFF3EA" font-size="28" font-family="Avenir Next, Trebuchet MS, sans-serif" font-weight="700">Quick Privacy Pass</text>
    <rect x="769" y="1660" width="288" height="418" rx="30" fill="#120D0A" stroke="white" stroke-opacity="0.08"/>
    <rect x="803" y="1724" width="224" height="18" rx="9" fill="#3F281C"/>
    <rect x="803" y="1764" width="224" height="18" rx="9" fill="#3F281C"/>
    <rect x="803" y="1804" width="224" height="18" rx="9" fill="#3F281C"/>
    <rect x="803" y="1894" width="224" height="14" rx="7" fill="#2E1D14"/>
    <rect x="803" y="1926" width="224" height="14" rx="7" fill="#2E1D14"/>
  </g>
  <rect x="112" y="2066" width="508" height="232" rx="40" fill="#2A1B13" stroke="white" stroke-opacity="0.08"/>
  <text x="154" y="2148" fill="#FFF7F1" font-size="36" font-family="Avenir Next, Trebuchet MS, sans-serif" font-weight="700">Fast enough for approvals, clean enough for delivery.</text>
  <text x="154" y="2220" fill="#D0BEB1" font-size="28" font-family="Avenir Next, Trebuchet MS, sans-serif" font-weight="500">Useful when the client wants one small privacy fix and definitely does not want a long turnaround.</text>
  <rect x="112" y="2390" width="256" height="78" rx="39" fill="#FFB17A"/>
  <text x="182" y="2441" fill="#311A0D" font-size="34" font-family="Avenir Next, Trebuchet MS, sans-serif" font-weight="800">NO DESKTOP NEEDED</text>
</svg>
