<svg width="1290" height="2796" viewBox="0 0 1290 2796" fill="none" xmlns="http://www.w3.org/2000/svg">
  <defs>
    <linearGradient id="bg" x1="90" y1="90" x2="1182" y2="2682" gradientUnits="userSpaceOnUse">
      <stop stop-color="#17131F"/>
      <stop offset="0.46" stop-color="#251A36"/>
      <stop offset="1" stop-color="#161126"/>
    </linearGradient>
    <linearGradient id="phone" x1="732" y1="494" x2="1092" y2="2240" gradientUnits="userSpaceOnUse">
      <stop stop-color="#2D2146"/>
      <stop offset="1" stop-color="#171227"/>
    </linearGradient>
  </defs>
  <rect width="1290" height="2796" rx="64" fill="url(#bg)"/>
  <rect x="82" y="86" width="1126" height="2624" rx="54" stroke="white" stroke-opacity="0.08" stroke-width="2"/>
  <rect x="112" y="118" width="274" height="62" rx="31" fill="#24193A" stroke="#C4A2FF" stroke-opacity="0.35"/>
  <text x="156" y="159" fill="#DDCBFF" font-size="30" font-family="Avenir Next, Trebuchet MS, sans-serif" font-weight="700" letter-spacing="5">SAVE TIME</text>
  <text x="112" y="362" fill="#FBF8FF" font-size="118" font-family="Avenir Next Condensed, Avenir Next, sans-serif" font-weight="800">BUILD</text>
  <text x="112" y="480" fill="#FBF8FF" font-size="118" font-family="Avenir Next Condensed, Avenir Next, sans-serif" font-weight="800">REUSABLE</text>
  <text x="112" y="598" fill="#C4A2FF" font-size="118" font-family="Avenir Next Condensed, Avenir Next, sans-serif" font-weight="800">TEMPLATES</text>
  <text x="116" y="714" fill="#D1C8E4" font-size="42" font-family="Avenir Next, Trebuchet MS, sans-serif" font-weight="500">Save the blur setups you use again and again for faces, plates, badges, and more.</text>
  <g>
    <rect x="715" y="470" width="396" height="1770" rx="58" fill="#07050C"/>
    <rect x="731" y="488" width="364" height="1734" rx="44" fill="url(#phone)"/>
    <rect x="832" y="522" width="161" height="31" rx="15.5" fill="#030208"/>
    <rect x="769" y="622" width="288" height="1440" rx="34" fill="#231938" stroke="white" stroke-opacity="0.08"/>
    <rect x="803" y="692" width="220" height="124" rx="26" fill="#130E22" stroke="#C4A2FF" stroke-opacity="0.45"/>
    <text x="850" y="764" fill="#F8F1FF" font-size="42" font-family="Avenir Next, Trebuchet MS, sans-serif" font-weight="800">Face Area</text>
    <rect x="803" y="872" width="220" height="124" rx="26" fill="#130E22" stroke="#C4A2FF" stroke-opacity="0.45"/>
    <text x="848" y="944" fill="#F8F1FF" font-size="42" font-family="Avenir Next, Trebuchet MS, sans-serif" font-weight="800">Plate Area</text>
    <rect x="803" y="1052" width="220" height="124" rx="26" fill="#130E22" stroke="#C4A2FF" stroke-opacity="0.45"/>
    <text x="832" y="1124" fill="#F8F1FF" font-size="42" font-family="Avenir Next, Trebuchet MS, sans-serif" font-weight="800">Badge Mask</text>
    <rect x="803" y="1232" width="220" height="124" rx="26" fill="#130E22" stroke="#C4A2FF" stroke-opacity="0.45"/>
    <text x="824" y="1304" fill="#F8F1FF" font-size="42" font-family="Avenir Next, Trebuchet MS, sans-serif" font-weight="800">Document Blur</text>
    <rect x="792" y="1496" width="242" height="54" rx="27" fill="#1E1530" stroke="#C4A2FF" stroke-opacity="0.55"/>
    <text x="838" y="1532" fill="#F8F1FF" font-size="28" font-family="Avenir Next, Trebuchet MS, sans-serif" font-weight="700">Saved Templates</text>
    <rect x="769" y="1648" width="288" height="416" rx="30" fill="#110C1B" stroke="white" stroke-opacity="0.08"/>
    <rect x="803" y="1712" width="224" height="16" rx="8" fill="#3B2A57"/>
    <rect x="803" y="1748" width="224" height="16" rx="8" fill="#3B2A57"/>
    <rect x="803" y="1784" width="224" height="16" rx="8" fill="#3B2A57"/>
    <rect x="803" y="1868" width="224" height="20" rx="10" fill="#2D2043"/>
    <circle cx="851" cy="1948" r="16" fill="#C4A2FF"/>
    <rect x="885" y="1938" width="142" height="20" rx="10" fill="#2D2043"/>
  </g>
  <rect x="112" y="2068" width="514" height="232" rx="40" fill="#1C1530" stroke="white" stroke-opacity="0.08"/>
  <text x="154" y="2148" fill="#FBF8FF" font-size="36" font-family="Avenir Next, Trebuchet MS, sans-serif" font-weight="700">Repeat the fix, not the setup work.</text>
  <text x="154" y="2220" fill="#C8BEDA" font-size="28" font-family="Avenir Next, Trebuchet MS, sans-serif" font-weight="500">Perfect for the details you keep hiding in every shoot, every post, and every client pass.</text>
  <rect x="112" y="2390" width="244" height="78" rx="39" fill="#C4A2FF"/>
  <text x="190" y="2441" fill="#291A45" font-size="34" font-family="Avenir Next, Trebuchet MS, sans-serif" font-weight="800">REUSE THE WORK</text>
</svg>
